<svg width="500" height="500" viewBox="0 0 500 500" fill="none" xmlns="http://www.w3.org/2000/svg">
<g clip-path="url(#clip0_2074_5)">
<rect width="500" height="500" fill="#600B93"/>
<path d="M500 0H0V500H500V0Z" fill="#FFECD6"/>
<path d="M255.499 395.333C338.066 395.333 404.999 328.4 404.999 245.833C404.999 163.266 338.066 96.333 255.499 96.333C172.932 96.333 105.999 163.266 105.999 245.833C105.999 328.4 172.932 395.333 255.499 395.333Z" stroke="#B79237" stroke-width="3" stroke-linecap="round" stroke-linejoin="round"/>
<path d="M336.522 326.861C381.272 282.111 381.272 209.556 336.522 164.806C291.772 120.056 219.218 120.056 174.468 164.806C129.718 209.556 129.718 282.111 174.468 326.861C219.218 371.611 291.772 371.611 336.522 326.861Z" fill="#2A397A"/>
<path d="M326.613 316.951C365.89 277.674 365.89 213.993 326.613 174.715C287.335 135.438 223.654 135.438 184.377 174.715C145.099 213.993 145.099 277.674 184.377 316.951C223.654 356.229 287.335 356.229 326.613 316.951Z" fill="#2F4184"/>
<path d="M302.133 207.032L315.813 228.192L327.164 225.157L310.08 203.847L302.133 207.032Z" fill="#161F3F"/>
<path d="M304.269 215.02C302.479 215.499 300.64 214.436 300.162 212.646L293.307 187.006C292.829 185.216 293.892 183.377 295.681 182.899C297.471 182.42 299.31 183.484 299.788 185.273L306.643 210.914C307.122 212.703 306.059 214.542 304.269 215.02Z" fill="#4A64D3"/>
<path d="M357.686 213.004C356.185 213.405 354.644 212.514 354.242 211.013L340.986 161.431C340.585 159.93 341.476 158.389 342.977 157.987C344.478 157.586 346.019 158.477 346.42 159.978L359.676 209.56C360.078 211.061 359.186 212.603 357.686 213.004Z" fill="#4A64D3"/>
<path d="M300.912 189.477L305.374 206.166L353.382 207.796L342.082 165.531L300.912 189.477Z" fill="#161F3F"/>
<path d="M225.805 225.167H203.763C198.597 225.167 194.409 220.979 194.409 215.813V215.026C194.409 209.86 198.597 205.672 203.763 205.672H225.805C230.971 205.672 235.159 209.86 235.159 215.026V215.813C235.159 220.979 230.971 225.167 225.805 225.167Z" fill="#4A64D3"/>
<path d="M248.743 171L236.194 191.516C235.654 191.359 235.084 191.27 234.493 191.27C231.133 191.27 228.41 193.994 228.41 197.353V204.241L226.723 207V214.417C226.723 230.763 239.974 244.013 256.32 244.013C272.666 244.013 285.916 230.762 285.916 214.417V187.646C285.916 186.172 285.804 184.724 285.596 183.307C259.952 183.281 248.743 171 248.743 171Z" fill="#F7E2BC"/>
<path d="M276.24 222.833C276.24 225.779 273.852 228.166 270.907 228.166C267.962 228.166 265.574 225.778 265.574 222.833C265.574 219.888 267.962 217.5 270.907 217.5C273.852 217.5 276.24 219.888 276.24 222.833Z" fill="#161F3F"/>
<path d="M317.743 300.333C315.768 300.333 313.805 299.685 312.186 298.413L274.381 268.747C270.47 265.679 269.788 260.021 272.857 256.111C275.926 252.2 281.584 251.518 285.493 254.587L306.66 271.196L302.788 232.905C302.288 227.96 305.891 223.546 310.837 223.046C315.783 222.54 320.196 226.149 320.696 231.095L326.696 290.428C327.059 294.018 325.243 297.478 322.082 299.218C320.723 299.965 319.23 300.333 317.743 300.333Z" fill="#E1652A"/>
<path d="M206.34 314.235C208.094 313.329 209.541 311.852 210.397 309.98L230.379 266.277C232.447 261.756 230.457 256.417 225.937 254.35C221.415 252.283 216.076 254.273 214.01 258.792L202.822 283.261L188.696 247.461C186.871 242.837 181.645 240.568 177.021 242.393C172.394 244.212 170.128 249.444 171.953 254.068L193.842 309.541C195.166 312.897 198.367 315.139 201.975 315.235C203.523 315.275 205.018 314.917 206.34 314.235Z" fill="#E1652A"/>
<path d="M259.24 202.667C255.196 202.667 251.906 199.377 251.906 195.334C251.906 194.782 252.353 194.334 252.906 194.334C253.459 194.334 253.906 194.782 253.906 195.334C253.906 198.274 256.299 200.667 259.24 200.667C262.18 200.667 264.573 198.274 264.573 195.334C264.573 194.782 265.02 194.334 265.573 194.334C266.126 194.334 266.573 194.782 266.573 195.334C266.573 199.377 263.283 202.667 259.24 202.667Z" fill="#161F3F"/>
<path d="M250.249 203.75C249.947 203.75 249.648 203.614 249.452 203.355C249.118 202.915 249.204 202.288 249.643 201.954L253.894 198.726C254.332 198.392 254.96 198.478 255.295 198.917C255.629 199.357 255.543 199.984 255.103 200.318L250.852 203.546C250.672 203.684 250.459 203.75 250.249 203.75Z" fill="#161F3F"/>
<path d="M256.998 206.52C256.445 206.52 255.998 206.072 255.998 205.52V201.979C255.998 201.427 256.445 200.979 256.998 200.979C257.551 200.979 257.998 201.427 257.998 201.979V205.52C257.998 206.073 257.551 206.52 256.998 206.52Z" fill="#161F3F"/>
<path d="M279.937 203.376C275.894 203.376 272.604 200.086 272.604 196.043C272.604 195.491 273.051 195.043 273.604 195.043C274.157 195.043 274.604 195.491 274.604 196.043C274.604 198.983 276.997 201.376 279.937 201.376C282.878 201.376 285.271 198.983 285.271 196.043C285.271 195.491 285.718 195.043 286.271 195.043C286.824 195.043 287.271 195.491 287.271 196.043C287.271 200.086 283.981 203.376 279.937 203.376Z" fill="#161F3F"/>
<path d="M288.93 204.459C288.719 204.459 288.507 204.393 288.326 204.255L284.075 201.027C283.635 200.693 283.549 200.066 283.883 199.626C284.219 199.186 284.845 199.101 285.284 199.435L289.535 202.663C289.975 202.997 290.061 203.624 289.727 204.064C289.53 204.323 289.231 204.459 288.93 204.459Z" fill="#161F3F"/>
<path d="M282.181 207.23C281.628 207.23 281.181 206.782 281.181 206.23V202.689C281.181 202.137 281.628 201.689 282.181 201.689C282.734 201.689 283.181 202.137 283.181 202.689V206.23C283.181 206.782 282.734 207.23 282.181 207.23Z" fill="#161F3F"/>
<path d="M256.978 158.065C256.878 158.06 256.779 158.05 256.677 158.05H256.319H220.627C217.327 158.05 214.652 160.725 214.652 164.025C214.652 165.179 214.985 166.253 215.552 167.167H203.55C199.309 167.167 195.871 170.605 195.871 174.846C195.871 177.344 197.069 179.556 198.915 180.959H192.292C183.555 180.959 176.473 186.667 176.473 193.709C176.473 200.751 183.556 206.459 192.292 206.459H226.723V207L228.41 204.242V197.354C228.41 193.994 231.133 191.271 234.493 191.271C235.084 191.271 235.653 191.36 236.194 191.517C236.194 191.517 242.436 187.817 245.243 181.501C247.91 175.501 247.88 170.838 248.493 171.745C252.66 177.912 259.952 183.282 285.596 183.309C283.528 169.231 271.552 158.384 256.978 158.065Z" fill="#4A64D3"/>
<path d="M245.512 216.019C249.301 216.019 252.372 213.944 252.372 211.384C252.372 208.824 249.301 206.749 245.512 206.749C241.724 206.749 238.652 208.824 238.652 211.384C238.652 213.944 241.724 216.019 245.512 216.019Z" fill="white"/>
<path d="M311.409 239.532C317.853 239.532 323.076 234.309 323.076 227.865C323.076 221.421 317.853 216.198 311.409 216.198C304.966 216.198 299.742 221.421 299.742 227.865C299.742 234.309 304.966 239.532 311.409 239.532Z" fill="#F7E2BC"/>
<path d="M176.473 253.429C182.916 253.429 188.14 248.205 188.14 241.762C188.14 235.318 182.916 230.095 176.473 230.095C170.029 230.095 164.806 235.318 164.806 241.762C164.806 248.205 170.029 253.429 176.473 253.429Z" fill="#F7E2BC"/>
<path d="M173.345 240.957L158.573 243.604C155.351 244.181 152.272 242.038 151.694 238.816L145.74 205.589C145.163 202.367 147.306 199.288 150.528 198.71L165.3 196.063C168.522 195.486 171.601 197.629 172.179 200.851L178.133 234.078C178.711 237.3 176.567 240.379 173.345 240.957Z" fill="#4A64D3"/>
<path d="M170.532 234.191L158.864 236.282C156.193 236.761 153.639 234.983 153.16 232.312L148.762 207.769C148.283 205.098 150.061 202.544 152.732 202.065L164.4 199.974C167.071 199.495 169.625 201.273 170.104 203.944L174.502 228.487C174.981 231.159 173.203 233.713 170.532 234.191Z" fill="#161F3F"/>
<path d="M167.017 238.122C167.19 239.087 166.548 240.009 165.583 240.182C164.618 240.355 163.696 239.713 163.523 238.748C163.35 237.783 163.992 236.861 164.957 236.688C165.922 236.515 166.844 237.157 167.017 238.122Z" fill="#161F3F"/>
<path d="M217.929 240.21H202.513C200.039 240.21 198.033 238.204 198.033 235.73C198.033 233.256 200.039 231.25 202.513 231.25H217.929C220.403 231.25 222.409 233.256 222.409 235.73C222.409 238.204 220.403 240.21 217.929 240.21Z" fill="#4A64D3"/>
<path d="M184.767 175.667H166.219C162.643 175.667 159.744 172.768 159.744 169.192C159.744 165.616 162.643 162.717 166.219 162.717H184.767C188.343 162.717 191.242 165.616 191.242 169.192C191.242 172.768 188.343 175.667 184.767 175.667Z" fill="#4A64D3"/>
<path d="M223.472 155H216.493C214.698 155 213.243 153.545 213.243 151.75C213.243 149.955 214.698 148.5 216.493 148.5H223.472C225.267 148.5 226.722 149.955 226.722 151.75C226.722 153.545 225.267 155 223.472 155Z" fill="#4A64D3"/>
<mask id="mask0_2074_5" style="mask-type:luminance" maskUnits="userSpaceOnUse" x="140" y="131" width="231" height="230">
<path d="M336.522 326.861C381.272 282.111 381.272 209.556 336.522 164.806C291.772 120.056 219.218 120.056 174.468 164.806C129.718 209.556 129.718 282.111 174.468 326.861C219.218 371.611 291.772 371.611 336.522 326.861Z" fill="white"/>
</mask>
<g mask="url(#mask0_2074_5)">
<path d="M254.804 393.962C235.911 393.962 220.595 378.646 220.595 359.753V284.208C220.595 265.315 235.911 249.999 254.804 249.999C273.697 249.999 289.013 265.315 289.013 284.208V359.753C289.013 378.647 273.697 393.962 254.804 393.962Z" fill="#E1652A"/>
</g>
<path d="M255.499 378.245C328.628 378.245 387.911 318.962 387.911 245.833C387.911 172.704 328.628 113.421 255.499 113.421C182.37 113.421 123.087 172.704 123.087 245.833C123.087 318.962 182.37 378.245 255.499 378.245Z" stroke="#B79237" stroke-linecap="round" stroke-linejoin="round"/>
<path d="M399.237 161.372H369.094C365.912 161.372 363.332 158.792 363.332 155.61V141.39C363.332 138.208 365.912 135.628 369.094 135.628H399.237C402.419 135.628 404.999 138.208 404.999 141.39V155.61C404.999 158.792 402.42 161.372 399.237 161.372Z" fill="white"/>
<path d="M343.895 260.915C349.185 260.915 353.472 256.627 353.472 251.338C353.472 246.049 349.185 241.761 343.895 241.761C338.606 241.761 334.318 246.049 334.318 251.338C334.318 256.627 338.606 260.915 343.895 260.915Z" stroke="#161F3F" stroke-width="2" stroke-miterlimit="10"/>
<path d="M307.692 323.616C310.761 323.616 313.25 321.128 313.25 318.058C313.25 314.988 310.761 312.5 307.692 312.5C304.622 312.5 302.134 314.988 302.134 318.058C302.134 321.128 304.622 323.616 307.692 323.616Z" fill="#161F3F"/>
<path d="M342.613 283.861C342.613 284.813 341.841 285.585 340.889 285.585C339.937 285.585 339.165 284.813 339.165 283.861C339.165 282.909 339.937 282.137 340.889 282.137C341.841 282.137 342.613 282.909 342.613 283.861Z" fill="#161F3F"/>
<path d="M166.372 275.787C166.372 278.594 164.096 280.87 161.289 280.87C158.482 280.87 156.206 278.594 156.206 275.787C156.206 272.98 158.482 270.704 161.289 270.704C164.096 270.704 166.372 272.98 166.372 275.787Z" stroke="#161F3F" stroke-width="2" stroke-miterlimit="10"/>
<path d="M179.45 300.333C179.45 303.023 177.27 305.203 174.58 305.203C171.89 305.203 169.71 303.023 169.71 300.333C169.71 297.643 171.89 295.463 174.58 295.463C177.27 295.463 179.45 297.643 179.45 300.333Z" fill="#161F3F"/>
<path d="M306.944 169.015C306.944 170.939 305.384 172.5 303.46 172.5C301.536 172.5 299.975 170.94 299.975 169.015C299.975 167.091 301.535 165.531 303.46 165.531C305.384 165.531 306.944 167.091 306.944 169.015Z" fill="#161F3F"/>
<path d="M313.25 164.632C314.241 164.632 315.044 163.829 315.044 162.838C315.044 161.847 314.241 161.044 313.25 161.044C312.259 161.044 311.456 161.847 311.456 162.838C311.456 163.829 312.259 164.632 313.25 164.632Z" fill="#161F3F"/>
<mask id="mask1_2074_5" style="mask-type:luminance" maskUnits="userSpaceOnUse" x="363" y="135" width="42" height="27">
<path d="M399.237 161.372H369.094C365.912 161.372 363.332 158.792 363.332 155.61V141.39C363.332 138.208 365.912 135.628 369.094 135.628H399.237C402.419 135.628 404.999 138.208 404.999 141.39V155.61C404.999 158.792 402.42 161.372 399.237 161.372Z" fill="white"/>
</mask>
<g mask="url(#mask1_2074_5)">
<path d="M363.333 137.833L384.166 151L405.833 136.333" stroke="#4A64D3" stroke-width="2" stroke-miterlimit="10" stroke-linecap="round" stroke-linejoin="round"/>
</g>
<path d="M414.589 141.667H403.545C400.666 141.667 398.333 139.334 398.333 136.455V134.212C398.333 131.334 400.666 129 403.545 129H414.589C417.468 129 419.801 131.333 419.801 134.212V136.455C419.801 139.333 417.468 141.667 414.589 141.667Z" fill="#E1652A"/>
<path d="M404.788 139.396L402.75 145.256L411.25 139.396H404.788Z" fill="#E1652A"/>
<path d="M409.064 138.337C410.776 137.106 411.633 135.98 412.036 135.121C412.507 134.117 412.097 132.873 411.07 132.456C409.863 131.966 409.064 133.097 409.064 133.097C409.064 133.097 408.27 131.962 407.064 132.453C406.037 132.87 405.628 134.114 406.098 135.118C406.501 135.977 407.352 137.106 409.064 138.337Z" fill="white"/>
<path d="M130.758 357.432H100.615C97.4325 357.432 94.8525 354.852 94.8525 351.67V337.45C94.8525 334.268 97.4325 331.688 100.615 331.688H130.758C133.94 331.688 136.52 334.268 136.52 337.45V351.67C136.52 354.852 133.94 357.432 130.758 357.432Z" fill="white"/>
<mask id="mask2_2074_5" style="mask-type:luminance" maskUnits="userSpaceOnUse" x="94" y="331" width="43" height="27">
<path d="M130.758 357.432H100.615C97.4325 357.432 94.8525 354.852 94.8525 351.67V337.45C94.8525 334.268 97.4325 331.688 100.615 331.688H130.758C133.94 331.688 136.52 334.268 136.52 337.45V351.67C136.52 354.852 133.94 357.432 130.758 357.432Z" fill="white"/>
</mask>
<g mask="url(#mask2_2074_5)">
<path d="M94.8525 333.893L115.686 347.06L137.354 332.393" stroke="#4A64D3" stroke-width="2" stroke-miterlimit="10" stroke-linecap="round" stroke-linejoin="round"/>
</g>
<path d="M146.109 337.727H135.065C132.186 337.727 129.853 335.394 129.853 332.515V330.272C129.853 327.394 132.186 325.06 135.065 325.06H146.109C148.988 325.06 151.321 327.393 151.321 330.272V332.515C151.321 335.393 148.988 337.727 146.109 337.727Z" fill="#E1652A"/>
<path d="M136.309 335.456L134.27 341.316L142.77 335.456H136.309Z" fill="#E1652A"/>
<path d="M140.585 334.397C142.297 333.166 143.154 332.04 143.557 331.181C144.028 330.177 143.618 328.933 142.591 328.516C141.384 328.025 140.585 329.157 140.585 329.157C140.585 329.157 139.791 328.022 138.585 328.513C137.558 328.93 137.149 330.174 137.619 331.178C138.021 332.037 138.872 333.166 140.585 334.397Z" fill="white"/>
<path d="M423.057 178.449L420.888 164.231C421.962 163.721 422.711 162.635 422.711 161.367C422.711 159.612 421.288 158.189 419.533 158.189C417.778 158.189 416.355 159.612 416.355 161.367C416.355 161.936 416.517 162.462 416.779 162.924L407.983 172.088C407.269 171.633 406.427 171.361 405.518 171.361C402.974 171.361 400.911 173.424 400.911 175.968C400.911 178.512 402.974 180.575 405.518 180.575C408.062 180.575 410.125 178.512 410.125 175.968C410.125 174.991 409.816 174.088 409.297 173.343L418.089 164.182C418.398 164.341 418.733 164.449 419.091 164.499L421.26 178.721C420.24 179.219 419.532 180.257 419.532 181.468C419.532 183.161 420.905 184.534 422.598 184.534C424.291 184.534 425.664 183.161 425.664 181.468C425.666 179.932 424.532 178.672 423.057 178.449Z" fill="#4A64D3"/>
<path d="M243.212 293.587H238.13C237.431 293.587 236.859 294.156 236.859 294.858V317.729C236.859 318.43 237.428 318.999 238.13 318.999H243.212C243.913 318.999 244.483 318.43 244.483 317.729V294.858C244.483 294.156 243.911 293.587 243.212 293.587Z" fill="#BF5025"/>
<path d="M272.606 293.587C272.401 293.552 262.82 293.587 262.82 293.587L264.158 289.936C265.081 287.414 264.484 283.564 261.921 282.195C261.087 281.749 259.921 281.525 258.981 281.762C258.442 281.898 257.968 282.254 257.686 282.732C257.361 283.282 257.395 283.924 257.279 284.533C256.986 286.079 256.255 287.55 255.124 288.653C253.151 290.577 247.023 296.127 247.023 296.127V316.457H268.2C271.058 316.459 272.93 313.268 271.521 310.775C273.201 309.699 273.776 307.433 272.792 305.693C274.472 304.617 275.046 302.351 274.063 300.611C276.962 298.755 275.992 294.16 272.606 293.587Z" fill="#BF5025"/>
<g opacity="0.47">
<path d="M425.333 139.495H423.2C422.907 139.495 422.667 139.734 422.667 140.028V149.626C422.667 149.92 422.906 150.159 423.2 150.159H425.333C425.627 150.159 425.866 149.92 425.866 149.626V140.028C425.866 139.734 425.626 139.495 425.333 139.495Z" fill="#B79237"/>
<path d="M437.669 139.495C437.583 139.48 433.562 139.495 433.562 139.495L434.124 137.963C434.512 136.905 434.261 135.289 433.185 134.714C432.835 134.527 432.346 134.433 431.951 134.532C431.725 134.589 431.526 134.739 431.408 134.939C431.272 135.17 431.286 135.439 431.237 135.695C431.114 136.344 430.807 136.961 430.333 137.424C429.505 138.231 426.933 140.561 426.933 140.561V149.093H435.82C437.019 149.094 437.805 147.754 437.214 146.708C437.919 146.256 438.16 145.305 437.747 144.575C438.452 144.123 438.693 143.172 438.28 142.442C439.497 141.664 439.09 139.736 437.669 139.495Z" fill="#B79237"/>
</g>
<path d="M342.853 133.648C350.709 133.648 357.077 127.28 357.077 119.424C357.077 111.568 350.709 105.2 342.853 105.2C334.997 105.2 328.629 111.568 328.629 119.424C328.629 127.28 334.997 133.648 342.853 133.648Z" fill="#E1652A"/>
<path d="M343.896 126.523V127.788H341.948V126.463C340.081 126.222 338.414 125.459 337.109 124.254L338.816 122.226C339.76 123.03 340.783 123.612 341.948 123.873V120.539C339.438 119.897 337.711 118.992 337.711 116.563C337.711 114.274 339.399 112.627 341.948 112.306V111.061H343.896V112.326C345.643 112.507 347.049 113.17 348.214 114.174L346.667 116.302C345.804 115.599 344.84 115.137 343.896 114.917V118.129C346.728 118.772 348.595 119.676 348.595 122.166C348.596 124.615 346.868 126.302 343.896 126.523ZM341.949 117.607V114.876C341.166 115.077 340.704 115.619 340.704 116.261C340.704 116.924 341.065 117.306 341.949 117.607ZM345.603 122.486C345.603 121.723 345.121 121.361 343.896 121.02V123.993C345.021 123.852 345.603 123.229 345.603 122.486Z" fill="white"/>
<path d="M62.0323 267.35C72.3197 267.35 80.6593 259.01 80.6593 248.723C80.6593 238.436 72.3197 230.096 62.0323 230.096C51.7449 230.096 43.4053 238.436 43.4053 248.723C43.4053 259.01 51.7449 267.35 62.0323 267.35Z" fill="#4A64D3"/>
<path d="M80.6602 248.723C80.6602 238.435 72.3202 230.095 62.0322 230.095V248.723H80.6602Z" fill="white"/>
<path d="M69.386 242.774V242.367C69.386 242.086 69.4437 241.828 69.5593 241.595C69.6773 241.358 69.8481 241.17 70.0716 241.029C70.2976 240.886 70.5714 240.815 70.8929 240.815C71.2194 240.815 71.4931 240.886 71.7141 241.029C71.9352 241.17 72.1022 241.358 72.2152 241.595C72.3282 241.828 72.3847 242.086 72.3847 242.367V242.774C72.3847 243.055 72.3269 243.314 72.2114 243.55C72.0984 243.783 71.9301 243.972 71.7066 244.115C71.4856 244.255 71.2143 244.326 70.8929 244.326C70.5664 244.326 70.2914 244.255 70.0678 244.115C69.8443 243.972 69.6748 243.783 69.5593 243.55C69.4437 243.314 69.386 243.055 69.386 242.774ZM70.1545 242.367V242.774C70.1545 243.007 70.2097 243.217 70.3203 243.403C70.4308 243.586 70.6216 243.678 70.8929 243.678C71.1566 243.678 71.3424 243.586 71.4504 243.403C71.5609 243.217 71.6162 243.007 71.6162 242.774V242.367C71.6162 242.133 71.5634 241.925 71.458 241.741C71.3525 241.556 71.1641 241.463 70.8929 241.463C70.6292 241.463 70.4396 241.556 70.324 241.741C70.211 241.925 70.1545 242.133 70.1545 242.367ZM65.5434 238.358V237.952C65.5434 237.67 65.6011 237.413 65.7167 237.179C65.8347 236.943 66.0055 236.755 66.229 236.614C66.455 236.471 66.7288 236.399 67.0503 236.399C67.3768 236.399 67.6505 236.471 67.8715 236.614C68.0925 236.755 68.2596 236.943 68.3726 237.179C68.4856 237.413 68.5421 237.67 68.5421 237.952V238.358C68.5421 238.64 68.4843 238.898 68.3688 239.135C68.2558 239.368 68.0875 239.556 67.864 239.7C67.643 239.84 67.3717 239.911 67.0503 239.911C66.7238 239.911 66.4488 239.84 66.2252 239.7C66.0017 239.556 65.8322 239.368 65.7167 239.135C65.6011 238.898 65.5434 238.64 65.5434 238.358ZM66.3119 237.952V238.358C66.3119 238.592 66.3671 238.802 66.4776 238.988C66.5882 239.171 66.779 239.263 67.0503 239.263C67.314 239.263 67.4998 239.171 67.6078 238.988C67.7183 238.802 67.7736 238.592 67.7736 238.358V237.952C67.7736 237.718 67.7208 237.51 67.6154 237.326C67.5099 237.14 67.3215 237.047 67.0503 237.047C66.7866 237.047 66.5969 237.14 66.4814 237.326C66.3684 237.51 66.3119 237.718 66.3119 237.952ZM65.8297 244.22L71.134 236.505H71.9929L66.6886 244.22H65.8297Z" fill="#4A64D3"/>
<path d="M73.4553 369.518H74.7166L77.6825 376.762H77.7848L80.7507 369.518H82.0121V378.245H81.0234V371.614H80.9382L78.2109 378.245H77.2564L74.5291 371.614H74.4439V378.245H73.4553V369.518ZM85.9208 378.398C85.506 378.398 85.1296 378.32 84.7915 378.164C84.4535 378.005 84.185 377.776 83.9862 377.478C83.7873 377.177 83.6879 376.813 83.6879 376.387C83.6879 376.012 83.7617 375.708 83.9094 375.475C84.0572 375.239 84.2546 375.055 84.5018 374.921C84.7489 374.788 85.0217 374.688 85.32 374.623C85.6211 374.555 85.9237 374.501 86.2276 374.461C86.6254 374.41 86.9478 374.371 87.195 374.346C87.445 374.317 87.6268 374.271 87.7404 374.205C87.8569 374.14 87.9151 374.026 87.9151 373.864V373.83C87.9151 373.41 87.8001 373.083 87.57 372.85C87.3427 372.617 86.9975 372.501 86.5344 372.501C86.0543 372.501 85.6779 372.606 85.4052 372.816C85.1325 373.026 84.9407 373.251 84.8299 373.489L83.8754 373.148C84.0458 372.751 84.2731 372.441 84.5572 372.219C84.8441 371.995 85.1566 371.839 85.4947 371.751C85.8356 371.66 86.1708 371.614 86.5004 371.614C86.7106 371.614 86.9521 371.64 87.2248 371.691C87.5004 371.739 87.766 371.84 88.0217 371.994C88.2802 372.147 88.4947 372.379 88.6651 372.688C88.8356 372.998 88.9208 373.413 88.9208 373.932V378.245H87.9151V377.359H87.864C87.7958 377.501 87.6822 377.653 87.5231 377.815C87.364 377.977 87.1523 378.114 86.8881 378.228C86.6239 378.342 86.3015 378.398 85.9208 378.398ZM86.0742 377.495C86.4719 377.495 86.8072 377.417 87.0799 377.261C87.3555 377.104 87.5629 376.903 87.7021 376.656C87.8441 376.408 87.9151 376.148 87.9151 375.876V374.955C87.8725 375.006 87.7788 375.053 87.6339 375.096C87.4918 375.136 87.3271 375.171 87.1396 375.202C86.9549 375.231 86.7745 375.256 86.5984 375.279C86.4251 375.299 86.2844 375.316 86.1765 375.33C85.9151 375.364 85.6708 375.42 85.4435 375.496C85.2191 375.57 85.0373 375.682 84.8981 375.833C84.7617 375.981 84.6935 376.182 84.6935 376.438C84.6935 376.788 84.8228 377.052 85.0813 377.231C85.3427 377.407 85.6737 377.495 86.0742 377.495ZM90.7564 378.245V371.7H91.728V372.688H91.7962C91.9155 372.364 92.1314 372.102 92.4439 371.9C92.7564 371.698 93.1087 371.597 93.5007 371.597C93.5746 371.597 93.6669 371.599 93.7777 371.602C93.8885 371.604 93.9723 371.609 94.0291 371.614V372.637C93.995 372.629 93.9169 372.616 93.7947 372.599C93.6754 372.579 93.549 372.569 93.4155 372.569C93.0973 372.569 92.8132 372.636 92.5632 372.769C92.3161 372.9 92.12 373.082 91.9751 373.315C91.8331 373.545 91.7621 373.807 91.7621 374.103V378.245H90.7564ZM96.1587 375.859L96.1417 374.614H96.3462L99.2099 371.7H100.454L97.4031 374.785H97.3178L96.1587 375.859ZM95.2212 378.245V369.518H96.2269V378.245H95.2212ZM99.3803 378.245L96.8235 375.006L97.5394 374.307L100.659 378.245H99.3803ZM104.223 378.381C103.593 378.381 103.049 378.242 102.591 377.964C102.137 377.682 101.786 377.29 101.539 376.788C101.294 376.282 101.172 375.694 101.172 375.023C101.172 374.353 101.294 373.762 101.539 373.251C101.786 372.736 102.13 372.336 102.57 372.049C103.013 371.759 103.53 371.614 104.121 371.614C104.462 371.614 104.799 371.671 105.131 371.785C105.463 371.898 105.766 372.083 106.039 372.339C106.311 372.592 106.529 372.927 106.691 373.344C106.853 373.762 106.934 374.276 106.934 374.887V375.313H101.888V374.444H105.911C105.911 374.075 105.837 373.745 105.689 373.455C105.544 373.165 105.337 372.937 105.067 372.769C104.8 372.602 104.485 372.518 104.121 372.518C103.721 372.518 103.374 372.617 103.081 372.816C102.792 373.012 102.569 373.268 102.412 373.583C102.256 373.898 102.178 374.236 102.178 374.597V375.177C102.178 375.671 102.263 376.09 102.434 376.434C102.607 376.775 102.847 377.035 103.154 377.214C103.461 377.39 103.817 377.478 104.223 377.478C104.488 377.478 104.726 377.441 104.939 377.367C105.155 377.29 105.341 377.177 105.498 377.026C105.654 376.873 105.775 376.682 105.86 376.455L106.831 376.728C106.729 377.057 106.557 377.347 106.316 377.597C106.074 377.844 105.776 378.038 105.421 378.177C105.066 378.313 104.667 378.381 104.223 378.381ZM111.31 371.7V372.552H107.918V371.7H111.31ZM108.907 370.131H109.912V376.37C109.912 376.654 109.953 376.867 110.036 377.009C110.121 377.148 110.229 377.242 110.36 377.29C110.493 377.336 110.634 377.359 110.782 377.359C110.892 377.359 110.983 377.353 111.054 377.342C111.125 377.327 111.182 377.316 111.225 377.307L111.429 378.211C111.361 378.236 111.266 378.262 111.144 378.288C111.022 378.316 110.867 378.33 110.679 378.33C110.395 378.33 110.117 378.269 109.844 378.147C109.574 378.025 109.35 377.839 109.171 377.589C108.995 377.339 108.907 377.023 108.907 376.643V370.131ZM112.823 378.245V371.7H113.828V378.245H112.823ZM113.334 370.609C113.138 370.609 112.969 370.542 112.827 370.408C112.688 370.275 112.618 370.114 112.618 369.927C112.618 369.739 112.688 369.579 112.827 369.445C112.969 369.312 113.138 369.245 113.334 369.245C113.53 369.245 113.698 369.312 113.837 369.445C113.979 369.579 114.05 369.739 114.05 369.927C114.05 370.114 113.979 370.275 113.837 370.408C113.698 370.542 113.53 370.609 113.334 370.609ZM116.676 374.307V378.245H115.67V371.7H116.642V372.722H116.727C116.881 372.39 117.114 372.123 117.426 371.921C117.739 371.717 118.142 371.614 118.636 371.614C119.08 371.614 119.467 371.705 119.8 371.887C120.132 372.066 120.391 372.339 120.575 372.705C120.76 373.069 120.852 373.529 120.852 374.086V378.245H119.847V374.154C119.847 373.64 119.713 373.239 119.446 372.952C119.179 372.663 118.813 372.518 118.347 372.518C118.026 372.518 117.739 372.587 117.486 372.727C117.236 372.866 117.038 373.069 116.893 373.336C116.749 373.603 116.676 373.927 116.676 374.307ZM125.332 380.836C124.846 380.836 124.429 380.773 124.079 380.648C123.73 380.526 123.439 380.364 123.206 380.163C122.975 379.964 122.792 379.751 122.656 379.523L123.457 378.961C123.548 379.08 123.663 379.217 123.802 379.37C123.941 379.526 124.132 379.661 124.373 379.775C124.618 379.891 124.937 379.95 125.332 379.95C125.86 379.95 126.297 379.822 126.64 379.566C126.984 379.31 127.156 378.91 127.156 378.364V377.035H127.071C126.997 377.154 126.892 377.302 126.755 377.478C126.622 377.651 126.429 377.806 126.176 377.942C125.926 378.076 125.588 378.143 125.162 378.143C124.633 378.143 124.159 378.018 123.738 377.768C123.321 377.518 122.99 377.154 122.745 376.677C122.504 376.2 122.383 375.62 122.383 374.938C122.383 374.268 122.501 373.684 122.737 373.187C122.973 372.687 123.301 372.3 123.721 372.028C124.142 371.752 124.627 371.614 125.179 371.614C125.605 371.614 125.943 371.685 126.193 371.827C126.446 371.967 126.639 372.126 126.772 372.305C126.909 372.481 127.014 372.626 127.088 372.739H127.19V371.7H128.162V378.432C128.162 378.995 128.034 379.452 127.778 379.805C127.525 380.16 127.184 380.42 126.755 380.584C126.329 380.752 125.855 380.836 125.332 380.836ZM125.298 377.239C125.701 377.239 126.042 377.147 126.321 376.962C126.599 376.778 126.811 376.512 126.956 376.165C127.1 375.819 127.173 375.404 127.173 374.921C127.173 374.45 127.102 374.033 126.96 373.673C126.818 373.312 126.608 373.029 126.329 372.825C126.051 372.62 125.707 372.518 125.298 372.518C124.872 372.518 124.517 372.626 124.233 372.842C123.951 373.057 123.74 373.347 123.598 373.711C123.458 374.075 123.389 374.478 123.389 374.921C123.389 375.376 123.46 375.778 123.602 376.127C123.747 376.474 123.96 376.746 124.241 376.945C124.525 377.141 124.877 377.239 125.298 377.239Z" fill="#B79237"/>
<path d="M93.5092 392.781C92.8956 392.781 92.3672 392.636 91.924 392.347C91.4808 392.057 91.1399 391.658 90.9013 391.149C90.6626 390.641 90.5433 390.06 90.5433 389.406C90.5433 388.742 90.6655 388.155 90.9098 387.646C91.157 387.135 91.5007 386.736 91.9411 386.449C92.3842 386.159 92.9013 386.014 93.4922 386.014C93.9524 386.014 94.3672 386.1 94.7365 386.27C95.1058 386.44 95.4084 386.679 95.6442 386.986C95.88 387.293 96.0263 387.651 96.0831 388.06H95.0774C95.0007 387.761 94.8303 387.497 94.5661 387.267C94.3047 387.034 93.9524 386.918 93.5092 386.918C93.1172 386.918 92.7734 387.02 92.478 387.225C92.1854 387.426 91.9567 387.712 91.7919 388.081C91.63 388.448 91.549 388.878 91.549 389.372C91.549 389.878 91.6286 390.318 91.7876 390.693C91.9496 391.068 92.1768 391.359 92.4695 391.567C92.7649 391.774 93.1115 391.878 93.5092 391.878C93.7706 391.878 94.0078 391.832 94.2209 391.742C94.4339 391.651 94.6143 391.52 94.7621 391.35C94.9098 391.179 95.0149 390.975 95.0774 390.736H96.0831C96.0263 391.122 95.8857 391.47 95.6612 391.78C95.4396 392.087 95.1456 392.331 94.7791 392.513C94.4155 392.692 93.9922 392.781 93.5092 392.781ZM100.212 392.781C99.6214 392.781 99.103 392.641 98.657 392.359C98.2138 392.078 97.8672 391.685 97.6172 391.179C97.37 390.673 97.2464 390.082 97.2464 389.406C97.2464 388.725 97.37 388.129 97.6172 387.621C97.8672 387.112 98.2138 386.717 98.657 386.436C99.103 386.155 99.6214 386.014 100.212 386.014C100.803 386.014 101.32 386.155 101.763 386.436C102.21 386.717 102.556 387.112 102.803 387.621C103.053 388.129 103.178 388.725 103.178 389.406C103.178 390.082 103.053 390.673 102.803 391.179C102.556 391.685 102.21 392.078 101.763 392.359C101.32 392.641 100.803 392.781 100.212 392.781ZM100.212 391.878C100.661 391.878 101.031 391.763 101.32 391.533C101.61 391.303 101.825 391 101.964 390.625C102.103 390.25 102.173 389.844 102.173 389.406C102.173 388.969 102.103 388.561 101.964 388.183C101.825 387.806 101.61 387.5 101.32 387.267C101.031 387.034 100.661 386.918 100.212 386.918C99.7635 386.918 99.3942 387.034 99.1044 387.267C98.8146 387.5 98.6001 387.806 98.4609 388.183C98.3217 388.561 98.2521 388.969 98.2521 389.406C98.2521 389.844 98.3217 390.25 98.4609 390.625C98.6001 391 98.8146 391.303 99.1044 391.533C99.3942 391.763 99.7635 391.878 100.212 391.878ZM105.719 388.707V392.645H104.713V386.1H105.685V387.122H105.77C105.924 386.79 106.157 386.523 106.469 386.321C106.782 386.117 107.185 386.014 107.679 386.014C108.123 386.014 108.51 386.105 108.843 386.287C109.175 386.466 109.434 386.739 109.618 387.105C109.803 387.469 109.895 387.929 109.895 388.486V392.645H108.89V388.554C108.89 388.04 108.756 387.639 108.489 387.352C108.222 387.063 107.855 386.918 107.39 386.918C107.069 386.918 106.782 386.987 106.529 387.127C106.279 387.266 106.081 387.469 105.936 387.736C105.792 388.003 105.719 388.327 105.719 388.707ZM114.392 392.781C113.778 392.781 113.25 392.636 112.807 392.347C112.364 392.057 112.023 391.658 111.784 391.149C111.545 390.641 111.426 390.06 111.426 389.406C111.426 388.742 111.548 388.155 111.793 387.646C112.04 387.135 112.384 386.736 112.824 386.449C113.267 386.159 113.784 386.014 114.375 386.014C114.835 386.014 115.25 386.1 115.619 386.27C115.989 386.44 116.291 386.679 116.527 386.986C116.763 387.293 116.909 387.651 116.966 388.06H115.96C115.884 387.761 115.713 387.497 115.449 387.267C115.188 387.034 114.835 386.918 114.392 386.918C114 386.918 113.656 387.02 113.361 387.225C113.068 387.426 112.839 387.712 112.675 388.081C112.513 388.448 112.432 388.878 112.432 389.372C112.432 389.878 112.511 390.318 112.67 390.693C112.832 391.068 113.06 391.359 113.352 391.567C113.648 391.774 113.994 391.878 114.392 391.878C114.653 391.878 114.891 391.832 115.104 391.742C115.317 391.651 115.497 391.52 115.645 391.35C115.793 391.179 115.898 390.975 115.96 390.736H116.966C116.909 391.122 116.768 391.47 116.544 391.78C116.322 392.087 116.028 392.331 115.662 392.513C115.298 392.692 114.875 392.781 114.392 392.781ZM121.18 392.781C120.55 392.781 120.006 392.642 119.548 392.364C119.094 392.082 118.743 391.69 118.496 391.188C118.251 390.682 118.129 390.094 118.129 389.423C118.129 388.753 118.251 388.162 118.496 387.651C118.743 387.136 119.087 386.736 119.527 386.449C119.97 386.159 120.487 386.014 121.078 386.014C121.419 386.014 121.756 386.071 122.088 386.185C122.42 386.298 122.723 386.483 122.996 386.739C123.268 386.992 123.486 387.327 123.648 387.744C123.81 388.162 123.891 388.676 123.891 389.287V389.713H118.845V388.844H122.868C122.868 388.475 122.794 388.145 122.646 387.855C122.501 387.565 122.294 387.337 122.024 387.169C121.757 387.002 121.442 386.918 121.078 386.918C120.678 386.918 120.331 387.017 120.038 387.216C119.749 387.412 119.526 387.668 119.369 387.983C119.213 388.298 119.135 388.636 119.135 388.997V389.577C119.135 390.071 119.22 390.49 119.391 390.834C119.564 391.175 119.804 391.435 120.111 391.614C120.418 391.79 120.774 391.878 121.18 391.878C121.445 391.878 121.683 391.841 121.896 391.767C122.112 391.69 122.298 391.577 122.455 391.426C122.611 391.273 122.732 391.082 122.817 390.855L123.788 391.128C123.686 391.457 123.514 391.747 123.273 391.997C123.031 392.244 122.733 392.438 122.378 392.577C122.023 392.713 121.624 392.781 121.18 392.781ZM125.42 395.1V386.1H126.392V387.139H126.511C126.585 387.026 126.688 386.881 126.818 386.705C126.952 386.526 127.142 386.367 127.389 386.227C127.639 386.085 127.977 386.014 128.403 386.014C128.955 386.014 129.44 386.152 129.861 386.428C130.281 386.703 130.609 387.094 130.845 387.6C131.081 388.105 131.199 388.702 131.199 389.389C131.199 390.082 131.081 390.683 130.845 391.192C130.609 391.698 130.283 392.09 129.865 392.368C129.447 392.644 128.966 392.781 128.42 392.781C128 392.781 127.663 392.712 127.411 392.573C127.158 392.431 126.963 392.27 126.827 392.091C126.69 391.909 126.585 391.759 126.511 391.639H126.426V395.1H125.42ZM126.409 389.372C126.409 389.867 126.482 390.303 126.626 390.681C126.771 391.056 126.983 391.35 127.261 391.563C127.54 391.773 127.881 391.878 128.284 391.878C128.705 391.878 129.055 391.767 129.337 391.546C129.621 391.321 129.834 391.02 129.976 390.642C130.121 390.261 130.193 389.838 130.193 389.372C130.193 388.912 130.122 388.497 129.98 388.128C129.841 387.756 129.629 387.462 129.345 387.246C129.064 387.027 128.71 386.918 128.284 386.918C127.875 386.918 127.531 387.021 127.253 387.229C126.974 387.433 126.764 387.72 126.622 388.09C126.48 388.456 126.409 388.884 126.409 389.372ZM135.58 386.1V386.952H132.188V386.1H135.58ZM133.176 384.531H134.182V390.77C134.182 391.054 134.223 391.267 134.305 391.409C134.391 391.548 134.499 391.642 134.629 391.69C134.763 391.736 134.903 391.759 135.051 391.759C135.162 391.759 135.253 391.753 135.324 391.742C135.395 391.727 135.452 391.716 135.494 391.707L135.699 392.611C135.631 392.636 135.536 392.662 135.413 392.688C135.291 392.716 135.136 392.73 134.949 392.73C134.665 392.73 134.386 392.669 134.114 392.547C133.844 392.425 133.619 392.239 133.44 391.989C133.264 391.739 133.176 391.423 133.176 391.043V384.531Z" fill="#B79237"/>
<path d="M122.223 407.045V398.318H125.172C125.856 398.318 126.416 398.441 126.851 398.688C127.288 398.933 127.612 399.264 127.822 399.681C128.032 400.099 128.138 400.565 128.138 401.079C128.138 401.593 128.032 402.061 127.822 402.481C127.615 402.902 127.294 403.237 126.859 403.487C126.425 403.734 125.868 403.858 125.189 403.858H123.075V402.92H125.155C125.623 402.92 126 402.839 126.284 402.677C126.568 402.515 126.774 402.296 126.902 402.021C127.032 401.742 127.098 401.429 127.098 401.079C127.098 400.73 127.032 400.417 126.902 400.142C126.774 399.866 126.567 399.65 126.28 399.494C125.993 399.335 125.612 399.255 125.138 399.255H123.28V407.045H122.223ZM130.709 398.318V407.045H129.704V398.318H130.709ZM134.477 407.198C134.063 407.198 133.686 407.12 133.348 406.964C133.01 406.805 132.742 406.576 132.543 406.278C132.344 405.977 132.244 405.613 132.244 405.187C132.244 404.812 132.318 404.508 132.466 404.275C132.614 404.039 132.811 403.855 133.058 403.721C133.306 403.588 133.578 403.488 133.877 403.423C134.178 403.355 134.48 403.301 134.784 403.261C135.182 403.21 135.504 403.171 135.752 403.146C136.002 403.117 136.183 403.071 136.297 403.005C136.414 402.94 136.472 402.826 136.472 402.664V402.63C136.472 402.21 136.357 401.883 136.127 401.65C135.899 401.417 135.554 401.301 135.091 401.301C134.611 401.301 134.235 401.406 133.962 401.616C133.689 401.826 133.497 402.051 133.387 402.289L132.432 401.948C132.602 401.551 132.83 401.241 133.114 401.019C133.401 400.795 133.713 400.639 134.051 400.551C134.392 400.46 134.727 400.414 135.057 400.414C135.267 400.414 135.509 400.44 135.781 400.491C136.057 400.539 136.323 400.64 136.578 400.794C136.837 400.947 137.051 401.179 137.222 401.488C137.392 401.798 137.477 402.213 137.477 402.733V407.045H136.472V406.159H136.421C136.352 406.301 136.239 406.453 136.08 406.615C135.921 406.777 135.709 406.914 135.445 407.028C135.181 407.142 134.858 407.198 134.477 407.198ZM134.631 406.295C135.029 406.295 135.364 406.217 135.637 406.061C135.912 405.904 136.119 405.703 136.259 405.456C136.401 405.208 136.472 404.948 136.472 404.676V403.755C136.429 403.806 136.335 403.853 136.191 403.896C136.048 403.936 135.884 403.971 135.696 404.002C135.512 404.031 135.331 404.056 135.155 404.079C134.982 404.099 134.841 404.116 134.733 404.13C134.472 404.164 134.227 404.22 134 404.296C133.776 404.37 133.594 404.483 133.455 404.633C133.318 404.781 133.25 404.983 133.25 405.238C133.25 405.588 133.379 405.852 133.638 406.031C133.899 406.207 134.23 406.295 134.631 406.295ZM140.319 403.108V407.045H139.313V400.5H140.285V401.522H140.37C140.523 401.19 140.756 400.923 141.069 400.721C141.381 400.517 141.785 400.414 142.279 400.414C142.722 400.414 143.11 400.505 143.442 400.687C143.775 400.866 144.033 401.139 144.218 401.505C144.403 401.869 144.495 402.329 144.495 402.886V407.045H143.489V402.954C143.489 402.44 143.356 402.039 143.089 401.752C142.822 401.463 142.455 401.318 141.989 401.318C141.668 401.318 141.381 401.387 141.128 401.527C140.878 401.666 140.681 401.869 140.536 402.136C140.391 402.403 140.319 402.727 140.319 403.108Z" fill="#B79237"/>
<path d="M444.666 186.664H392.83V228.193H444.666V186.664Z" fill="#F7CB47"/>
<path d="M402.333 223.895V197.571C402.333 195.362 404.124 193.571 406.333 193.571C408.542 193.571 410.333 195.362 410.333 197.571V223.895" fill="white"/>
<path d="M430.833 223.895V217.213C430.833 215.004 429.042 213.213 426.833 213.213C424.624 213.213 422.833 215.004 422.833 217.213V223.895H430.833Z" fill="white"/>
<path d="M421 223.895V208.007C421 205.798 419.209 204.007 417 204.007C414.791 204.007 413 205.798 413 208.007V223.895H421Z" fill="white"/>
<path d="M398.333 189.602V223.896H435.667" stroke="#4A64D3" stroke-width="2" stroke-miterlimit="10" stroke-linecap="round" stroke-linejoin="round"/>
<g opacity="0.47">
<path d="M425.135 193.596H423.4C423.162 193.596 422.966 193.79 422.966 194.03V201.836C422.966 202.075 423.16 202.27 423.4 202.27H425.135C425.374 202.27 425.569 202.076 425.569 201.836V194.03C425.568 193.791 425.373 193.596 425.135 193.596Z" fill="#B79237"/>
<path d="M435.167 193.596C435.097 193.584 431.827 193.596 431.827 193.596L432.284 192.35C432.599 191.489 432.395 190.175 431.521 189.708C431.236 189.556 430.839 189.479 430.518 189.56C430.334 189.606 430.172 189.728 430.076 189.891C429.965 190.079 429.977 190.298 429.937 190.506C429.837 191.034 429.588 191.536 429.201 191.912C428.528 192.569 426.436 194.463 426.436 194.463V201.402H433.664C434.639 201.403 435.279 200.313 434.797 199.463C435.37 199.096 435.567 198.322 435.231 197.728C435.804 197.361 436.001 196.587 435.665 195.993C436.654 195.36 436.323 193.792 435.167 193.596Z" fill="#B79237"/>
</g>
<path d="M448.635 160.414H446.9C446.662 160.414 446.466 160.608 446.466 160.848V168.654C446.466 168.893 446.66 169.088 446.9 169.088H448.635C448.874 169.088 449.069 168.894 449.069 168.654V160.848C449.068 160.608 448.873 160.414 448.635 160.414Z" fill="#B79237"/>
<path d="M458.667 160.414C458.597 160.402 455.327 160.414 455.327 160.414L455.784 159.168C456.099 158.307 455.895 156.993 455.021 156.526C454.736 156.374 454.339 156.297 454.018 156.378C453.834 156.424 453.672 156.546 453.576 156.709C453.465 156.897 453.477 157.116 453.437 157.324C453.337 157.852 453.088 158.353 452.701 158.73C452.028 159.387 449.936 161.281 449.936 161.281V168.22H457.164C458.139 168.221 458.779 167.131 458.297 166.281C458.87 165.914 459.067 165.14 458.731 164.546C459.304 164.179 459.501 163.405 459.165 162.811C460.154 162.178 459.823 160.609 458.667 160.414Z" fill="#B79237"/>
<path opacity="0.58" d="M91.6812 308.562H100.207C102.429 308.562 104.23 310.363 104.23 312.585V314.316C104.23 316.538 102.429 318.34 100.207 318.34H99.8572L100.821 321.111L96.8022 318.34H91.6822C89.4602 318.34 87.6592 316.539 87.6592 314.316V312.585C87.6582 310.364 89.4592 308.562 91.6812 308.562Z" fill="#B79237"/>
<path opacity="0.58" d="M71.6366 336.351H80.8086C83.1986 336.351 85.1366 338.289 85.1366 340.68V342.543C85.1366 344.934 83.1986 346.872 80.8086 346.872H80.4316L81.4686 349.853L77.1446 346.872H71.6366C69.2456 346.872 67.3086 344.934 67.3086 342.543V340.68C67.3086 338.289 69.2466 336.351 71.6366 336.351Z" fill="#B79237"/>
<path opacity="0.58" d="M54.7337 297.382H69.3337C73.1387 297.382 76.2237 300.467 76.2237 304.272V307.237C76.2237 311.042 73.1387 314.127 69.3337 314.127H68.7347L70.3857 318.872L63.5027 314.127H54.7347C50.9297 314.127 47.8447 311.042 47.8447 307.237V304.272C47.8437 300.466 50.9287 297.382 54.7337 297.382Z" fill="#B79237"/>
<path d="M106.666 299.344C116.607 299.344 124.666 291.285 124.666 281.344C124.666 271.403 116.607 263.344 106.666 263.344C96.7249 263.344 88.666 271.403 88.666 281.344C88.666 291.285 96.7249 299.344 106.666 299.344Z" fill="#E1652A"/>
<path d="M109.436 295.594L123.851 300.701L116.643 286.094L109.436 295.594Z" fill="#E1652A"/>
<path d="M116.634 286.295C116.676 286.619 116.577 286.901 116.338 287.14L113.528 289.928C113.401 290.069 113.236 290.189 113.032 290.287C112.828 290.386 112.627 290.449 112.43 290.477C112.416 290.477 112.374 290.481 112.303 290.488C112.233 290.495 112.141 290.499 112.028 290.499C111.76 290.499 111.327 290.453 110.729 290.362C110.13 290.27 109.398 290.045 108.532 289.686C107.666 289.327 106.683 288.788 105.585 288.07C104.486 287.352 103.318 286.366 102.078 285.113C101.092 284.141 100.275 283.212 99.628 282.325C98.98 281.438 98.459 280.617 98.065 279.864C97.671 279.11 97.375 278.428 97.178 277.815C96.981 277.202 96.847 276.674 96.777 276.231C96.706 275.787 96.678 275.439 96.692 275.185C96.706 274.931 96.713 274.791 96.713 274.763C96.741 274.566 96.804 274.365 96.903 274.161C97.002 273.957 97.121 273.791 97.262 273.665L100.072 270.855C100.269 270.658 100.494 270.559 100.748 270.559C100.931 270.559 101.093 270.612 101.234 270.717C101.375 270.822 101.494 270.953 101.593 271.108L103.853 275.396C103.98 275.621 104.015 275.868 103.959 276.135C103.903 276.402 103.783 276.628 103.6 276.811L102.565 277.846C102.537 277.874 102.512 277.92 102.491 277.983C102.47 278.046 102.459 278.099 102.459 278.141C102.515 278.437 102.642 278.775 102.839 279.155C103.008 279.493 103.268 279.905 103.621 280.391C103.973 280.877 104.473 281.437 105.121 282.07C105.755 282.718 106.318 283.221 106.811 283.581C107.304 283.94 107.716 284.204 108.047 284.373C108.378 284.542 108.632 284.644 108.807 284.679L109.071 284.732C109.099 284.732 109.145 284.721 109.208 284.7C109.271 284.679 109.317 284.654 109.345 284.626L110.549 283.401C110.803 283.176 111.098 283.063 111.436 283.063C111.676 283.063 111.865 283.105 112.006 283.19H112.027L116.104 285.598C116.402 285.781 116.578 286.013 116.634 286.295Z" fill="white"/>
<path d="M473.258 226.012C476.595 220.766 475.047 213.808 469.801 210.471C464.554 207.134 457.596 208.682 454.259 213.928C450.922 219.175 452.47 226.133 457.716 229.47C462.963 232.807 469.921 231.259 473.258 226.012Z" stroke="white" stroke-width="2" stroke-miterlimit="10"/>
<path d="M439 259.284C439 262.616 436.299 265.318 432.966 265.318C429.634 265.318 426.932 262.617 426.932 259.284C426.932 255.952 429.633 253.25 432.966 253.25C436.299 253.25 439 255.951 439 259.284Z" fill="white"/>
<path d="M364.906 87.2778C365.971 82.7828 363.191 78.2753 358.696 77.2101C354.201 76.1449 349.693 78.9253 348.628 83.4203C347.563 87.9154 350.343 92.4229 354.838 93.4881C359.333 94.5533 363.841 91.7729 364.906 87.2778Z" fill="white"/>
<path d="M315.212 92.034C319.321 92.034 322.652 88.703 322.652 84.594C322.652 80.485 319.321 77.154 315.212 77.154C311.103 77.154 307.772 80.485 307.772 84.594C307.772 88.703 311.103 92.034 315.212 92.034Z" stroke="white" stroke-width="2" stroke-miterlimit="10"/>
<path d="M395 71C395 72.732 393.596 74.136 391.864 74.136C390.132 74.136 388.728 72.732 388.728 71C388.728 69.268 390.132 67.864 391.864 67.864C393.596 67.864 395 69.268 395 71Z" fill="white"/>
<path d="M50 340.231C53.8434 340.231 56.959 337.115 56.959 333.272C56.959 329.429 53.8434 326.313 50 326.313C46.1567 326.313 43.041 329.429 43.041 333.272C43.041 337.115 46.1567 340.231 50 340.231Z" stroke="white" stroke-miterlimit="10"/>
<path d="M50 335.981C51.4962 335.981 52.709 334.768 52.709 333.272C52.709 331.776 51.4962 330.563 50 330.563C48.5039 330.563 47.291 331.776 47.291 333.272C47.291 334.768 48.5039 335.981 50 335.981Z" fill="white"/>
<path d="M69.25 423C71.8734 423 74 420.873 74 418.25C74 415.627 71.8734 413.5 69.25 413.5C66.6266 413.5 64.5 415.627 64.5 418.25C64.5 420.873 66.6266 423 69.25 423Z" fill="white"/>
<path d="M103.731 409.25C104.974 409.25 105.981 408.243 105.981 407C105.981 405.757 104.974 404.75 103.731 404.75C102.489 404.75 101.481 405.757 101.481 407C101.481 408.243 102.489 409.25 103.731 409.25Z" fill="white"/>
<path d="M134.27 445.5C139.516 445.5 143.77 441.247 143.77 436C143.77 430.753 139.516 426.5 134.27 426.5C129.023 426.5 124.77 430.753 124.77 436C124.77 441.247 129.023 445.5 134.27 445.5Z" stroke="white" stroke-width="2" stroke-miterlimit="10"/>
<path d="M26.3586 283.3C30.3903 283.3 33.6586 280.032 33.6586 276C33.6586 271.968 30.3903 268.7 26.3586 268.7C22.3269 268.7 19.0586 271.968 19.0586 276C19.0586 280.032 22.3269 283.3 26.3586 283.3Z" stroke="white" stroke-width="2" stroke-miterlimit="10"/>
<path d="M72.737 282.974C74.6628 282.974 76.224 281.413 76.224 279.487C76.224 277.561 74.6628 276 72.737 276C70.8112 276 69.25 277.561 69.25 279.487C69.25 281.413 70.8112 282.974 72.737 282.974Z" fill="white"/>
<path d="M148.684 129.36L151.977 136.033L159.34 137.103L154.012 142.296L155.27 149.63L148.684 146.168L142.097 149.63L143.355 142.296L138.027 137.103L145.39 136.033L148.684 129.36Z" stroke="#F7CB47" stroke-width="9" stroke-miterlimit="10" stroke-linecap="round" stroke-linejoin="round"/>
<path d="M148.684 129.36L151.977 136.033L159.34 137.103L154.012 142.296L155.27 149.63L148.684 146.168L142.097 149.63L143.355 142.296L138.027 137.103L145.39 136.033L148.684 129.36Z" fill="white"/>
<path d="M148.684 129.36L151.977 136.033L159.34 137.103L154.012 142.296L155.27 149.63L148.684 146.168L142.097 149.63L143.355 142.296L138.027 137.103L145.39 136.033L148.684 129.36Z" stroke="white" stroke-width="2" stroke-miterlimit="10" stroke-linecap="round" stroke-linejoin="round"/>
<path d="M230.252 381.081L231.98 388.318L238.922 390.997L232.573 394.878L232.17 402.308L226.518 397.468L219.327 399.381L222.183 392.51L218.142 386.262L225.559 386.855L230.252 381.081Z" stroke="#F7CB47" stroke-width="9" stroke-miterlimit="10" stroke-linecap="round" stroke-linejoin="round"/>
<path d="M230.252 381.081L231.98 388.318L238.922 390.997L232.573 394.878L232.17 402.308L226.518 397.468L219.327 399.381L222.183 392.51L218.142 386.262L225.559 386.855L230.252 381.081Z" fill="white"/>
<path d="M230.252 381.081L231.98 388.318L238.922 390.997L232.573 394.878L232.17 402.308L226.518 397.468L219.327 399.381L222.183 392.51L218.142 386.262L225.559 386.855L230.252 381.081Z" stroke="white" stroke-width="2" stroke-miterlimit="10" stroke-linecap="round" stroke-linejoin="round"/>
<path d="M402.851 260.592L405.69 267.47L412.965 269.031L407.301 273.856L408.065 281.258L401.725 277.362L394.922 280.376L396.668 273.143L391.7 267.603L399.118 267.029L402.851 260.592Z" stroke="#F7CB47" stroke-width="9" stroke-miterlimit="10" stroke-linecap="round" stroke-linejoin="round"/>
<path d="M402.851 260.592L405.69 267.47L412.965 269.031L407.301 273.856L408.065 281.258L401.725 277.362L394.922 280.376L396.668 273.143L391.7 267.603L399.118 267.029L402.851 260.592Z" fill="white"/>
<path d="M402.851 260.592L405.69 267.47L412.965 269.031L407.301 273.856L408.065 281.258L401.725 277.362L394.922 280.376L396.668 273.143L391.7 267.603L399.118 267.029L402.851 260.592Z" stroke="white" stroke-width="2" stroke-miterlimit="10" stroke-linecap="round" stroke-linejoin="round"/>
<path d="M259.24 76.788L263.8 86.03L273.999 87.512L266.619 94.705L268.361 104.862L259.24 100.067L250.118 104.862L251.86 94.705L244.48 87.512L254.679 86.03L259.24 76.788Z" stroke="#F7CB47" stroke-width="8" stroke-miterlimit="10" stroke-linecap="round" stroke-linejoin="round"/>
<path d="M259.24 76.788L263.8 86.03L273.999 87.512L266.619 94.705L268.361 104.862L259.24 100.067L250.118 104.862L251.86 94.705L244.48 87.512L254.679 86.03L259.24 76.788Z" fill="white"/>
<path d="M259.24 76.788L263.8 86.03L273.999 87.512L266.619 94.705L268.361 104.862L259.24 100.067L250.118 104.862L251.86 94.705L244.48 87.512L254.679 86.03L259.24 76.788Z" stroke="white" stroke-width="2" stroke-miterlimit="10" stroke-linecap="round" stroke-linejoin="round"/>
<path d="M373.318 319.647L380.236 327.286L390.451 325.918L385.324 334.857L389.781 344.149L379.695 342.035L372.236 349.146L371.129 338.9L362.061 334.004L371.463 329.785L373.318 319.647Z" stroke="#F7CB47" stroke-width="8" stroke-miterlimit="10" stroke-linecap="round" stroke-linejoin="round"/>
<path d="M373.318 319.647L380.236 327.286L390.451 325.918L385.324 334.857L389.781 344.149L379.695 342.035L372.236 349.146L371.129 338.9L362.061 334.004L371.463 329.785L373.318 319.647Z" fill="white"/>
<path d="M373.318 319.647L380.236 327.286L390.451 325.918L385.324 334.857L389.781 344.149L379.695 342.035L372.236 349.146L371.129 338.9L362.061 334.004L371.463 329.785L373.318 319.647Z" stroke="white" stroke-width="2" stroke-miterlimit="10" stroke-linecap="round" stroke-linejoin="round"/>
<path d="M163.173 224.985C166.198 222.022 167.557 219.527 168.096 217.7C168.726 215.565 167.536 213.22 165.371 212.703C162.827 212.096 161.584 214.584 161.584 214.584C161.584 214.584 159.665 212.573 157.418 213.913C155.507 215.053 155.072 217.647 156.31 219.496C157.37 221.079 159.401 223.062 163.173 224.985Z" fill="#4A64D3"/>
<path d="M429.069 294.073C425.328 296.929 419.961 296.209 417.105 292.469C414.249 288.728 414.969 283.361 418.71 280.504C422.451 277.648 427.818 278.368 430.675 282.109C433.53 285.85 432.81 291.217 429.069 294.073ZM421.137 283.683C419.149 285.201 418.766 288.053 420.284 290.041C421.802 292.029 424.654 292.411 426.641 290.893C428.629 289.375 429.012 286.524 427.495 284.536C425.978 282.548 423.125 282.166 421.137 283.683Z" fill="#B79237"/>
<path d="M434.992 301.831C434.114 302.501 432.859 302.333 432.189 301.455L426.266 293.697C425.596 292.819 425.764 291.564 426.642 290.894C427.52 290.224 428.775 290.392 429.445 291.27L435.368 299.028C436.038 299.906 435.87 301.161 434.992 301.831Z" fill="#B79237"/>
<path d="M113.086 150.807C110.074 147.19 110.567 141.797 114.184 138.786C117.801 135.774 123.194 136.267 126.206 139.884C129.218 143.501 128.725 148.894 125.108 151.906C121.49 154.917 116.097 154.424 113.086 150.807ZM123.131 142.443C121.531 140.521 118.665 140.259 116.743 141.859C114.821 143.459 114.56 146.325 116.16 148.247C117.76 150.169 120.626 150.432 122.548 148.831C124.47 147.23 124.731 144.366 123.131 142.443Z" fill="#B79237"/>
<path d="M105.584 157.052C104.877 156.203 104.993 154.942 105.841 154.235L113.342 147.99C114.191 147.283 115.452 147.398 116.159 148.247C116.866 149.096 116.75 150.357 115.902 151.064L108.401 157.309C107.552 158.016 106.291 157.901 105.584 157.052Z" fill="#B79237"/>
<g opacity="0.46">
<path d="M342.687 379.168L352.948 384.731L348.984 387.667L345.02 390.604L342.687 379.168Z" fill="#B79237"/>
<path d="M353.393 385.331L345.465 391.205C345.26 391.357 344.991 391.394 344.753 391.302C344.515 391.211 344.339 391.004 344.288 390.753L341.955 379.317C341.897 379.033 342.009 378.74 342.242 378.567C342.475 378.394 342.788 378.372 343.043 378.51L353.305 384.072C353.529 384.194 353.676 384.422 353.694 384.676C353.712 384.932 353.598 385.179 353.393 385.331ZM345.517 389.306L351.56 384.829L343.739 380.589L345.517 389.306Z" fill="#B79237"/>
<path d="M352.047 391.801C351.384 392.292 350.448 392.153 349.956 391.49L346.778 387.201C346.287 386.538 346.426 385.602 347.089 385.11C347.752 384.619 348.688 384.758 349.18 385.421L352.358 389.71C352.849 390.374 352.71 391.31 352.047 391.801Z" fill="#B79237"/>
</g>
<g opacity="0.46">
<path d="M345.559 402.39L350.772 411.229L346.455 411.647L342.138 412.065L345.559 402.39Z" fill="#B79237"/>
<path d="M350.835 411.883L342.201 412.719C341.977 412.741 341.758 412.647 341.62 412.47C341.482 412.293 341.444 412.058 341.518 411.846L344.939 402.172C345.024 401.932 345.241 401.762 345.495 401.737C345.749 401.712 345.994 401.838 346.124 402.057L351.337 410.895C351.451 411.088 351.459 411.327 351.357 411.527C351.256 411.726 351.059 411.861 350.835 411.883ZM343.101 411.311L349.682 410.674L345.709 403.938L343.101 411.311Z" fill="#B79237"/>
<path d="M346.889 416.148C346.167 416.218 345.525 415.689 345.455 414.967L345.003 410.296C344.933 409.574 345.462 408.931 346.184 408.862C346.906 408.792 347.548 409.321 347.618 410.043L348.07 414.714C348.14 415.436 347.612 416.078 346.889 416.148Z" fill="#B79237"/>
</g>
<g opacity="0.46">
<path d="M366.772 403.102L374.45 403.207L373.038 406.129L371.626 409.052L366.772 403.102Z" fill="#B79237"/>
<path d="M374.892 403.421L372.069 409.266C371.996 409.417 371.85 409.521 371.684 409.541C371.517 409.561 371.352 409.493 371.246 409.363L366.392 403.414C366.271 403.266 366.247 403.061 366.33 402.889C366.413 402.717 366.589 402.609 366.779 402.611L374.457 402.715C374.625 402.717 374.78 402.805 374.869 402.948C374.956 403.091 374.965 403.269 374.892 403.421ZM371.519 408.143L373.671 403.688L367.819 403.609L371.519 408.143Z" fill="#B79237"/>
<path d="M376.086 407.602C375.85 408.091 375.262 408.296 374.773 408.06L371.611 406.533C371.122 406.297 370.917 405.709 371.153 405.22C371.389 404.731 371.977 404.526 372.466 404.762L375.628 406.29C376.118 406.525 376.323 407.113 376.086 407.602Z" fill="#B79237"/>
</g>
<g opacity="0.44">
<path d="M232.15 85.823L220.494 85.219L222.808 80.862L225.122 76.505L232.15 85.823Z" fill="#B79237"/>
<path d="M219.834 84.869L224.462 76.154C224.582 75.928 224.809 75.78 225.063 75.759C225.318 75.739 225.565 75.85 225.719 76.054L232.747 85.372C232.922 85.603 232.947 85.916 232.81 86.172C232.674 86.429 232.401 86.583 232.111 86.568L220.454 85.964C220.199 85.951 219.968 85.808 219.842 85.586C219.718 85.366 219.714 85.094 219.834 84.869ZM225.232 77.891L221.704 84.533L230.588 84.993L225.232 77.891Z" fill="#B79237"/>
<path d="M218.264 78.449C218.651 77.72 219.556 77.443 220.285 77.83L225 80.333C225.729 80.72 226.006 81.625 225.619 82.354C225.232 83.083 224.327 83.36 223.598 82.973L218.883 80.469C218.154 80.082 217.877 79.177 218.264 78.449Z" fill="#B79237"/>
</g>
<g opacity="0.44">
<path d="M219.562 66.098L211.053 60.364L214.769 58.129L218.486 55.893L219.562 66.098Z" fill="#B79237"/>
<path d="M210.714 59.801L218.148 55.33C218.34 55.214 218.579 55.205 218.78 55.305C218.981 55.405 219.117 55.601 219.14 55.824L220.216 66.028C220.243 66.281 220.12 66.528 219.901 66.66C219.682 66.792 219.407 66.784 219.195 66.642L210.685 60.908C210.499 60.783 210.389 60.571 210.395 60.346C210.402 60.123 210.522 59.917 210.714 59.801ZM217.941 56.988L212.275 60.396L218.761 64.766L217.941 56.988Z" fill="#B79237"/>
<path d="M212.439 54.253C213.061 53.879 213.868 54.08 214.242 54.702L216.661 58.724C217.035 59.346 216.834 60.153 216.212 60.527C215.59 60.901 214.783 60.7 214.409 60.078L211.99 56.056C211.616 55.434 211.817 54.627 212.439 54.253Z" fill="#B79237"/>
</g>
<g opacity="0.44">
<path d="M200.108 74.587L193.133 77.797L193.149 74.551L193.165 71.306L200.108 74.587Z" fill="#B79237"/>
<path d="M192.641 77.795L192.674 71.304C192.675 71.136 192.762 70.98 192.904 70.89C193.046 70.8 193.224 70.79 193.376 70.862L200.318 74.142C200.49 74.224 200.6 74.398 200.599 74.589C200.598 74.78 200.486 74.953 200.313 75.033L193.338 78.244C193.186 78.314 193.007 78.302 192.866 78.211C192.725 78.119 192.64 77.963 192.641 77.795ZM193.653 72.08L193.628 77.028L198.944 74.581L193.653 72.08Z" fill="#B79237"/>
<path d="M189.764 74.534C189.767 73.991 190.209 73.553 190.752 73.556L194.264 73.574C194.807 73.577 195.245 74.019 195.242 74.562C195.239 75.105 194.797 75.543 194.254 75.54L190.742 75.522C190.2 75.52 189.762 75.077 189.764 74.534Z" fill="#B79237"/>
</g>
<g opacity="0.39">
<path d="M99.1966 198.908C99.1376 198.384 98.5266 197.99 97.9976 197.99C96.2886 197.99 94.7716 196.986 94.1356 195.434C93.4856 193.844 93.9046 191.99 95.1786 190.821C95.5796 190.454 95.6286 189.841 95.2916 189.415C94.4166 188.304 93.4226 187.3 92.3366 186.431C91.9116 186.09 91.2876 186.137 90.9186 186.546C89.8066 187.777 87.8096 188.235 86.2666 187.591C84.6606 186.915 83.6476 185.288 83.7466 183.541C83.7796 182.992 83.3786 182.515 82.8316 182.451C81.4386 182.29 80.0326 182.285 78.6356 182.44C78.0946 182.5 77.6936 182.965 77.7116 183.507C77.7726 185.237 76.7476 186.836 75.1576 187.487C73.6326 188.11 71.6496 187.656 70.5396 186.436C70.1726 186.034 69.5596 185.985 69.1316 186.318C68.0136 187.195 66.9966 188.2 66.1136 189.301C65.7696 189.729 65.8196 190.35 66.2246 190.719C67.5226 191.895 67.9416 193.765 67.2676 195.373C66.6236 196.906 65.0316 197.894 63.2086 197.894C62.6176 197.875 62.1956 198.272 62.1316 198.81C61.9676 200.211 61.9656 201.639 62.1236 203.052C62.1826 203.579 62.8126 203.969 63.3466 203.969C64.9706 203.927 66.5306 204.933 67.1846 206.525C67.8366 208.115 67.4176 209.968 66.1416 211.138C65.7426 211.505 65.6916 212.117 66.0286 212.543C66.8956 213.647 67.8896 214.652 68.9796 215.528C69.4066 215.872 70.0286 215.824 70.3996 215.416C71.5156 214.182 73.5126 213.725 75.0496 214.37C76.6596 215.043 77.6726 216.671 77.5736 218.418C77.5416 218.967 77.9446 219.445 78.4886 219.508C79.2016 219.591 79.9186 219.633 80.6376 219.633C81.3196 219.633 82.0026 219.595 82.6856 219.52C83.2266 219.46 83.6276 218.995 83.6096 218.452C83.5466 216.723 84.5736 215.125 86.1616 214.474C87.6966 213.847 89.6716 214.306 90.7806 215.525C91.1496 215.926 91.7586 215.975 92.1886 215.643C93.3046 214.768 94.3196 213.764 95.2066 212.659C95.5506 212.232 95.5026 211.61 95.0956 211.241C93.7976 210.065 93.3756 208.195 94.0506 206.588C94.6846 205.075 96.2176 204.059 97.8666 204.059L98.0976 204.065C98.6326 204.108 99.1246 203.696 99.1896 203.15C99.3526 201.748 99.3546 200.321 99.1966 198.908ZM80.6906 207.241C77.2596 207.241 74.4686 204.45 74.4686 201.019C74.4686 197.588 77.2596 194.797 80.6906 194.797C84.1216 194.797 86.9126 197.588 86.9126 201.019C86.9116 204.45 84.1206 207.241 80.6906 207.241Z" fill="#B79237"/>
</g>
<path d="M199.309 403.15C199.266 402.767 198.819 402.479 198.433 402.479C197.184 402.479 196.076 401.746 195.611 400.612C195.136 399.45 195.442 398.096 196.373 397.242C196.666 396.974 196.702 396.526 196.456 396.214C195.817 395.402 195.09 394.669 194.297 394.034C193.986 393.785 193.531 393.819 193.261 394.118C192.449 395.018 190.99 395.352 189.862 394.882C188.689 394.389 187.949 393.2 188.021 391.923C188.045 391.522 187.752 391.174 187.352 391.127C186.334 391.009 185.307 391.006 184.286 391.119C183.891 391.163 183.598 391.503 183.611 391.899C183.655 393.163 182.907 394.331 181.745 394.807C180.631 395.262 179.182 394.931 178.371 394.039C178.103 393.745 177.655 393.709 177.342 393.952C176.525 394.593 175.782 395.327 175.137 396.132C174.885 396.445 174.922 396.899 175.218 397.168C176.167 398.027 176.473 399.393 175.98 400.568C175.509 401.688 174.346 402.41 173.015 402.41C172.583 402.396 172.275 402.686 172.228 403.079C172.108 404.103 172.107 405.146 172.222 406.178C172.265 406.563 172.725 406.848 173.116 406.848C174.303 406.818 175.442 407.552 175.92 408.715C176.397 409.877 176.09 411.231 175.158 412.085C174.866 412.353 174.829 412.8 175.075 413.112C175.708 413.918 176.435 414.652 177.231 415.293C177.543 415.545 177.998 415.509 178.268 415.211C179.083 414.309 180.542 413.975 181.666 414.447C182.842 414.939 183.582 416.128 183.51 417.405C183.486 417.806 183.781 418.155 184.179 418.201C184.7 418.262 185.224 418.292 185.749 418.292C186.248 418.292 186.746 418.265 187.245 418.209C187.64 418.165 187.933 417.825 187.92 417.429C187.874 416.166 188.624 414.998 189.785 414.523C190.906 414.065 192.349 414.4 193.16 415.291C193.43 415.584 193.875 415.619 194.189 415.377C195.004 414.738 195.746 414.005 196.394 413.197C196.646 412.885 196.61 412.43 196.313 412.161C195.364 411.302 195.057 409.935 195.549 408.761C196.012 407.656 197.132 406.913 198.337 406.913L198.506 406.917C198.897 406.949 199.256 406.648 199.304 406.249C199.423 405.224 199.424 404.182 199.309 403.15ZM185.788 409.237C183.281 409.237 181.242 407.198 181.242 404.691C181.242 402.184 183.281 400.145 185.788 400.145C188.295 400.145 190.334 402.184 190.334 404.691C190.333 407.198 188.294 409.237 185.788 409.237Z" fill="#B79237"/>
<g opacity="0.4">
<path d="M409.645 100.856C409.604 100.489 409.176 100.213 408.805 100.213C407.608 100.213 406.546 99.51 406.101 98.424C405.646 97.311 405.939 96.013 406.831 95.195C407.112 94.938 407.146 94.509 406.91 94.21C406.297 93.432 405.601 92.73 404.841 92.121C404.543 91.882 404.107 91.915 403.849 92.201C403.071 93.063 401.672 93.383 400.592 92.933C399.468 92.46 398.759 91.321 398.828 90.098C398.851 89.714 398.57 89.38 398.187 89.335C397.212 89.222 396.228 89.219 395.249 89.327C394.871 89.369 394.59 89.695 394.603 90.074C394.646 91.285 393.928 92.404 392.815 92.86C391.748 93.296 390.359 92.978 389.582 92.124C389.325 91.843 388.896 91.808 388.597 92.041C387.814 92.655 387.103 93.358 386.484 94.13C386.243 94.43 386.278 94.865 386.562 95.123C387.471 95.946 387.764 97.255 387.292 98.381C386.841 99.454 385.727 100.146 384.451 100.146C384.037 100.133 383.742 100.411 383.697 100.787C383.582 101.768 383.581 102.768 383.691 103.757C383.732 104.126 384.173 104.399 384.547 104.399C385.684 104.37 386.776 105.074 387.234 106.188C387.691 107.301 387.397 108.598 386.504 109.417C386.225 109.674 386.189 110.103 386.425 110.401C387.032 111.174 387.728 111.877 388.491 112.491C388.79 112.732 389.225 112.698 389.485 112.412C390.266 111.548 391.664 111.228 392.74 111.68C393.867 112.151 394.576 113.291 394.507 114.514C394.484 114.898 394.766 115.233 395.148 115.277C395.647 115.335 396.149 115.364 396.652 115.364C397.13 115.364 397.608 115.338 398.085 115.285C398.464 115.243 398.744 114.917 398.731 114.537C398.687 113.327 399.406 112.208 400.518 111.752C401.593 111.313 402.975 111.634 403.752 112.488C404.01 112.769 404.437 112.803 404.738 112.57C405.519 111.958 406.23 111.255 406.851 110.481C407.092 110.182 407.058 109.747 406.773 109.489C405.864 108.666 405.569 107.356 406.041 106.231C406.485 105.172 407.558 104.461 408.712 104.461L408.873 104.465C409.247 104.496 409.592 104.207 409.637 103.825C409.754 102.843 409.755 101.845 409.645 100.856ZM396.689 106.689C394.287 106.689 392.333 104.735 392.333 102.333C392.333 99.931 394.287 97.977 396.689 97.977C399.091 97.977 401.045 99.931 401.045 102.333C401.045 104.735 399.091 106.689 396.689 106.689Z" fill="#B79237"/>
</g>
</g>
<defs>
<clipPath id="clip0_2074_5">
<rect width="500" height="500" fill="white"/>
</clipPath>
</defs>
</svg>
