<svg width="1565" height="314" viewBox="0 0 1565 314" fill="none" xmlns="http://www.w3.org/2000/svg">
<path d="M906.702 174.029H840.282V311.181H826.1L785.746 273.464C785.746 273.464 785.969 206.816 785.763 174.029H719.348V129.973H906.702V174.029Z" fill="#FFD53D"/>
<path d="M1130 311.181H1075.48V240.451H993.242V311.181H938.596V129.973H993.242V196.517H1075.48V129.973H1130V311.181Z" fill="#FFD53D"/>
<path d="M1350.95 311.181H1292.25L1278 279.014C1272.77 267.247 1268.07 258.641 1263.88 253.195C1259.69 247.749 1255.62 244.26 1251.65 242.736C1247.68 241.213 1242.57 240.451 1236.29 240.451H1230.15V311.181H1175.5V129.973H1268.45C1283.44 129.973 1295.74 133.02 1305.32 139.124C1314.91 145.229 1321.82 152.631 1326.04 161.35C1330.27 170.069 1332.38 178.346 1332.38 186.19C1332.38 195.342 1330.62 203.073 1327.09 209.394C1323.56 215.714 1319.83 220.313 1315.91 223.191C1311.99 226.07 1307.59 228.816 1302.71 231.431C1308.55 234.826 1313.36 238.861 1317.15 243.517C1320.94 248.182 1326.11 257.616 1332.64 271.828L1350.95 311.181ZM1276.69 187.234C1276.69 178.872 1273.94 173.031 1268.45 169.721C1262.96 166.401 1254.03 164.745 1241.65 164.745H1230.15V208.415H1241.92C1255.25 208.415 1264.38 206.957 1269.31 204.032C1274.23 201.117 1276.69 195.52 1276.69 187.234Z" fill="#FFD53D"/>
<path d="M1564.58 229.992C1564.58 245.502 1561.68 258.726 1555.88 269.664C1550.08 280.603 1542.42 289.256 1532.87 295.624C1523.33 301.982 1513.04 306.553 1502.02 309.347C1491 312.131 1479.99 313.532 1469.01 313.532C1453.66 313.532 1438.74 310.917 1424.23 305.688C1409.71 300.458 1397.58 291.57 1387.82 279.014C1378.05 266.467 1373.17 250.12 1373.17 229.992V129.973H1427.7V215.865C1427.7 227.81 1429.42 237.676 1432.86 245.483C1436.3 253.28 1441.09 258.989 1447.24 262.61C1453.38 266.222 1460.63 268.037 1469.01 268.037C1477.03 268.037 1484.13 266.25 1490.32 262.676C1496.51 259.102 1501.32 253.43 1504.77 245.68C1508.21 237.921 1509.93 228.073 1509.93 216.128V167.266L1564.58 129.973V229.992Z" fill="#FFD53D"/>
<path d="M701.167 186.251C701.167 192.952 700.095 199.653 697.682 206.086C695.27 212.519 691.518 218.416 686.425 224.044C681.332 229.405 674.363 233.962 665.518 237.446C656.941 240.931 646.487 242.539 634.694 242.539H598.777V310.62H544.098V129.16H634.694C646.487 129.16 656.941 131.036 665.518 134.52C674.363 138.005 681.332 142.561 686.425 148.19C691.518 153.551 695.27 159.716 697.682 166.149C700.095 172.85 701.167 179.55 701.167 186.251ZM645.415 186.519C645.415 177.942 642.735 172.045 637.642 168.829C632.55 165.613 623.436 164.004 610.303 164.004H598.777V207.694H610.571C619.684 207.694 626.653 207.158 631.477 206.086C636.302 205.014 640.055 202.87 642.199 199.653C644.343 196.705 645.415 192.416 645.415 186.519Z" fill="#FFD53D"/>
<path fill-rule="evenodd" clip-rule="evenodd" d="M1182.4 36.8186L1182.29 76.903L1466.38 78.7789L1465.86 113.662L1554.88 57.0578L1467.31 0L1466.82 38.6628" fill="#FFD53D"/>
<path d="M180.809 312.37L0 313.643V131.159H55.0306V269.933H138.63L180.809 312.37Z" fill="#FFD53D"/>
<path d="M220.123 186.615C199.054 197.149 186.688 217.301 186.917 241.575C187.146 287.376 231.115 314.628 275.084 296.536C293.633 288.979 322.487 269.056 350.197 244.552C379.509 218.904 399.891 205.164 417.066 198.981C432.867 193.485 438.134 193.256 451.187 197.836C500.881 215.469 488.744 288.063 436.073 288.292C419.127 288.292 404.013 281.651 380.654 264.018C369.699 255.872 358.817 251.39 358.817 251.39C358.817 251.39 393.936 282.796 412.486 292.414C426.455 299.513 431.951 300.887 446.378 301.574C461.722 302.261 464.928 301.803 476.149 295.849C491.492 287.834 502.255 274.094 507.293 256.69C510.499 245.468 510.728 241.575 508.438 230.125C500.194 189.821 462.409 170.355 422.104 185.47C404.929 191.882 374.242 212.95 349.052 235.621C305.77 274.781 283.328 288.292 262.03 288.292C246.458 288.292 236.84 284.399 227.222 274.323C217.833 264.247 215.085 256.69 215.085 240.888C215.085 217.301 232.031 198.523 256.534 195.317C273.023 193.027 295.007 203.332 328.899 228.522C333.022 231.728 338.06 232.644 338.06 232.644C338.06 232.644 296.381 193.943 273.71 185.47C255.16 178.599 235.466 179.057 220.123 186.615Z" fill="#FFD53D"/>
</svg>
